<?xml version="1.0" encoding="utf-8"?>
<!-- Generator: Adobe Illustrator 16.0.0, SVG Export Plug-In . SVG Version: 6.00 Build 0)  -->
<!DOCTYPE svg PUBLIC "-//W3C//DTD SVG 1.1//EN" "http://www.w3.org/Graphics/SVG/1.1/DTD/svg11.dtd">
<svg version="1.1" id="editable_text" xmlns="http://www.w3.org/2000/svg" xmlns:xlink="http://www.w3.org/1999/xlink" x="0px"
	 y="0px" width="294.035px" height="70.241px" viewBox="0 0 294.035 70.241" enable-background="new 0 0 294.035 70.241"
	 xml:space="preserve">
<g>
	<path d="M36.483,15.879c0.037-1.477,0.073-3.78-0.11-5.184c-0.441-3.096-2.829-1.764-2.829-3.744c0-1.367,1.616-1.943,2.792-1.943
		c0.956,0,7.569,0.36,10.619,0.36c0.735,0,8.12-0.36,8.635-0.36c1.433,0,2.939,2.951,2.939,5.399c0,1.224-0.588,2.483-1.984,2.483
		c-2.535,0-1.212-3.707-8.267-3.707c-2.242,0-3.197-0.181-3.197,5.039c0,0.647,0.037,1.26,2.168,1.26
		c2.829,0,1.029-3.312,3.601-3.312c2.095,0,2.241,3.924,2.241,5.327c0,1.692-0.184,6.048-2.682,6.048
		c-2.352,0,0.074-4.068-3.858-4.068c-1.617,0-1.396,0.288-1.433,3.996c-0.147,5.327,3.564,2.376,3.564,5.111
		c0,0.828,0.331,2.411-8.598,2.411c-5.879,0-6.834-0.827-6.834-2.375c0-2.016,1.984-1.08,2.755-2.988
		c0.368-1.008,0.478-3.563,0.478-4.751V15.879z"/>
	<path d="M61.577,12.854c0-5.579-2.793-3.275-2.793-5.507c0-1.979,2.866-2.231,4.336-2.231c0.771,0,1.506,0.071,2.278,0.107
		c0.734,0.072,1.506,0.145,2.241,0.145c1.176,0,2.352-0.072,3.564-0.145c1.176-0.036,2.388-0.107,3.564-0.107
		c4.152,0,8.965,1.8,8.965,6.587c0,2.159-1.065,4.247-3.123,5.219c-0.331,0.181-0.588,0.288-0.588,0.721
		c0,0.54,0.478,0.684,0.918,0.863c2.572,0.937,3.711,2.592,4.226,6.479c0.441,3.348,2.829,1.332,2.829,3.527
		c0,1.368-1.69,2.808-5.842,2.808c-5.879,0-6.614-3.312-7.753-8.062c-0.404-1.656-1.029-3.276-3.05-3.276
		c-0.809,0-1.103,0.108-1.103,2.376c0,1.044,0.074,2.483,0.257,3.492c0.294,1.655,2.168,1.151,2.168,2.879
		c0,1.296-0.918,2.268-6.871,2.268c-1.764,0-6.981,0-6.981-2.627c0-1.872,2.756-0.576,2.756-5.256V12.854z M70.102,14.438
		c-0.074,0.936-0.257,1.728,0.955,1.728c2.388,0,3.16-1.296,3.16-3.527c0-1.764-0.441-3.563-2.572-3.563
		c-1.359,0-1.323,0.828-1.396,1.943L70.102,14.438z"/>
	<path d="M103.94,5.368c4.923,0,5.622-0.721,6.209-0.721c2.094,0,2.976,3.528,2.976,5.111c0,1.188-0.478,2.592-1.911,2.592
		c-2.902,0-0.551-3.455-7.532-3.455c-4.079,0-3.674,0.72-3.674,4.859c0,2.088,0.11,2.159,2.352,2.159
		c2.792,0,0.698-3.995,3.307-3.995c2.131,0,2.278,4.067,2.278,5.472c0,1.476-0.257,5.795-2.462,5.795c-2.278,0,0-3.779-3.711-3.779
		c-1.543,0-1.506,1.367-1.506,2.52c0,5.255,0.367,5.003,4.226,5.003c7.532,0,5.401-5.075,8.414-5.075
		c1.176,0,1.764,1.296,1.764,2.304c0,2.448-1.984,6.839-3.454,6.839c-0.257,0-0.845-0.107-1.617-0.216
		c-0.808-0.071-1.837-0.18-3.086-0.18H91.41c-2.425,0-2.461-1.08-2.461-1.548c0-1.979,2.499-0.396,2.755-4.212
		c0.441-6.551,0.478-5.902,0.11-12.418c-0.257-5.507-3.05-2.664-3.05-5.22c0-2.195,3.087-1.835,4.593-1.835H103.94z"/>
	<path d="M130.614,5.368c4.923,0,5.622-0.721,6.209-0.721c2.094,0,2.976,3.528,2.976,5.111c0,1.188-0.478,2.592-1.911,2.592
		c-2.902,0-0.551-3.455-7.532-3.455c-4.079,0-3.674,0.72-3.674,4.859c0,2.088,0.11,2.159,2.352,2.159
		c2.792,0,0.698-3.995,3.307-3.995c2.131,0,2.278,4.067,2.278,5.472c0,1.476-0.257,5.795-2.462,5.795c-2.278,0,0-3.779-3.711-3.779
		c-1.543,0-1.506,1.367-1.506,2.52c0,5.255,0.367,5.003,4.226,5.003c7.532,0,5.401-5.075,8.414-5.075
		c1.176,0,1.764,1.296,1.764,2.304c0,2.448-1.984,6.839-3.454,6.839c-0.257,0-0.845-0.107-1.617-0.216
		c-0.808-0.071-1.837-0.18-3.086-0.18h-15.102c-2.425,0-2.461-1.08-2.461-1.548c0-1.979,2.499-0.396,2.755-4.212
		c0.441-6.551,0.478-5.902,0.11-12.418c-0.257-5.507-3.05-2.664-3.05-5.22c0-2.195,3.087-1.835,4.593-1.835H130.614z"/>
	<path d="M145.346,15.879c0.037-1.477,0.074-3.78-0.11-5.184c-0.441-3.096-2.83-1.764-2.83-3.744c0-1.367,1.617-1.943,2.793-1.943
		c0.955,0,7.569,0.36,10.618,0.36c0.735,0,8.121-0.36,8.635-0.36c1.434,0,2.939,2.951,2.939,5.399c0,1.224-0.588,2.483-1.984,2.483
		c-2.535,0-1.212-3.707-8.267-3.707c-2.241,0-3.196-0.181-3.196,5.039c0,0.647,0.036,1.26,2.168,1.26c2.828,0,1.028-3.312,3.6-3.312
		c2.095,0,2.242,3.924,2.242,5.327c0,1.692-0.184,6.048-2.683,6.048c-2.352,0,0.073-4.068-3.858-4.068
		c-1.616,0-1.396,0.288-1.433,3.996c-0.147,5.327,3.564,2.376,3.564,5.111c0,0.828,0.331,2.411-8.599,2.411
		c-5.878,0-6.834-0.827-6.834-2.375c0-2.016,1.984-1.08,2.756-2.988c0.368-1.008,0.478-3.563,0.478-4.751V15.879z"/>
	<path d="M168.015,17.895c0-7.632,6.21-13.03,14.22-13.03c10.141,0,14.036,8.746,14.036,13.39c0,7.739-6.981,12.851-14.478,12.851
		C174.041,31.104,168.015,25.562,168.015,17.895z M180.544,10.228c-2.058,0-3.086,2.087-3.086,3.852
		c0,3.06,2.204,11.662,6.173,11.662c2.241,0,3.196-1.908,3.196-3.852C186.827,18.614,184.843,10.228,180.544,10.228z"/>
	<path d="M200.493,12.854c0-5.579-2.792-3.275-2.792-5.507c0-1.979,2.865-2.231,4.336-2.231c0.771,0,1.506,0.071,2.277,0.107
		c0.735,0.072,1.507,0.145,2.241,0.145c1.176,0,2.352-0.072,3.564-0.145c1.176-0.036,2.389-0.107,3.564-0.107
		c4.151,0,8.965,1.8,8.965,6.587c0,2.159-1.065,4.247-3.123,5.219c-0.331,0.181-0.588,0.288-0.588,0.721
		c0,0.54,0.478,0.684,0.919,0.863c2.571,0.937,3.711,2.592,4.225,6.479c0.441,3.348,2.83,1.332,2.83,3.527
		c0,1.368-1.69,2.808-5.843,2.808c-5.879,0-6.613-3.312-7.753-8.062c-0.404-1.656-1.028-3.276-3.049-3.276
		c-0.809,0-1.103,0.108-1.103,2.376c0,1.044,0.073,2.483,0.257,3.492c0.294,1.655,2.168,1.151,2.168,2.879
		c0,1.296-0.919,2.268-6.871,2.268c-1.764,0-6.981,0-6.981-2.627c0-1.872,2.756-0.576,2.756-5.256V12.854z M209.018,14.438
		c-0.073,0.936-0.257,1.728,0.955,1.728c2.389,0,3.16-1.296,3.16-3.527c0-1.764-0.44-3.563-2.572-3.563
		c-1.359,0-1.322,0.828-1.396,1.943L209.018,14.438z"/>
	<path d="M237.382,20.486c-0.221-0.469-0.625-1.548-1.286-1.548c-1.139,0-0.771,4.751-0.771,5.938c0,3.852,2.352,2.052,2.352,3.996
		c0,2.052-3.932,2.123-5.365,2.123c-1.285,0-4.629-0.107-4.629-1.979c0-2.052,2.204-0.359,2.498-3.312
		c0.294-3.023,0.625-6.371,0.625-11.591c0-2.159-0.147-3.275-0.551-4.104c-0.368-0.756-2.462-1.008-2.462-2.483
		c0-2.052,3.417-2.556,6.356-2.556c4.299,0,4.226,0.72,5.327,2.556c1.286,2.124,3.564,8.027,5.181,8.387
		c1.14,0.252,2.646-4.104,3.969-6.479c1.874-3.384,1.91-4.464,6.761-4.464c1.616,0,5.291,0.108,5.291,2.376
		c0,1.439-1.653,1.728-2.021,2.951c-0.294,1.008-0.552,5.256-0.552,6.875c0,0.54,0.221,4.5,0.368,7.848
		c0.109,2.628,2.314,2.052,2.314,3.671c0,2.412-5.034,2.304-6.65,2.304c-1.507,0-6.541,0.145-6.541-2.159
		c0-1.26,1.654-1.476,1.911-2.628c0.147-0.611,0.882-6.803-0.404-6.803c-1.139,0-2.314,3.167-3.196,5.003
		c-0.809,1.656-2.131,5.76-3.307,5.615c-0.588-0.071-0.883,0-3.087-4.859L237.382,20.486z"/>
</g>
<g>
	<path d="M258.432,61.353c0,2.952,2.7,1.729,2.7,3.708c0,2.34-5.474,2.376-7.027,2.376c-1.664,0-6.99-0.107-6.99-2.447
		c0-2.088,2.7-0.217,2.811-4.716v-2.088c0-0.396-0.147-0.575-0.592-0.575c-0.999,0-2.108,0.18-3.218,0.18
		c-5.142,0-9.802-2.88-9.802-8.243c0-5.399,4.846-8.243,9.876-8.243c1.553,0,4.809,0.504,10.171,0.504
		c0.925,0,1.812-0.072,2.737-0.072c1.146,0,2.774,0.324,2.774,1.764c0,2.268-3.44,1.08-3.44,3.779V61.353z M244.857,49.69
		c0,2.195,0.962,3.996,3.403,3.996c1.997,0,1.664-0.828,1.664-1.584v-5.399c0-0.72,0.037-1.151-1.405-1.151
		C246.041,45.552,244.857,47.423,244.857,49.69z"/>
	<path d="M221.035,67.544c-7.546,0-14.573-5.111-14.573-12.85c0-4.644,3.921-13.391,14.129-13.391
		c8.063,0,14.314,5.399,14.314,13.03C234.905,62.001,228.84,67.544,221.035,67.544z M215.968,58.329
		c0,1.944,0.962,3.852,3.218,3.852c3.995,0,6.214-8.603,6.214-11.662c0-1.764-1.035-3.852-3.106-3.852
		C217.965,46.667,215.968,55.054,215.968,58.329z"/>
	<path d="M202.205,59.554c0,4.68,2.774,3.383,2.774,5.255c0,2.628-5.252,2.628-7.027,2.628c-5.992,0-6.917-0.973-6.917-2.268
		c0-1.729,1.887-1.225,2.183-2.88c0.185-1.008,0.259-2.448,0.259-3.491c0-2.268-0.296-2.376-1.109-2.376
		c-2.035,0-2.664,1.62-3.07,3.275c-1.146,4.751-1.887,8.063-7.805,8.063c-4.18,0-5.881-1.439-5.881-2.809
		c0-2.195,2.404-0.18,2.848-3.527c0.519-3.887,1.665-5.543,4.254-6.479c0.444-0.18,0.925-0.324,0.925-0.864
		c0-0.432-0.259-0.54-0.592-0.72c-2.071-0.973-3.144-3.06-3.144-5.219c0-4.788,4.845-6.588,9.024-6.588
		c1.184,0,2.404,0.072,3.588,0.107c1.221,0.072,2.404,0.145,3.588,0.145c0.739,0,1.517-0.072,2.256-0.145
		c0.777-0.035,1.517-0.107,2.294-0.107c1.479,0,4.364,0.252,4.364,2.232c0,2.23-2.812-0.072-2.812,5.507V59.554z M193.477,47.459
		c-0.074-1.116-0.037-1.944-1.406-1.944c-2.145,0-2.589,1.801-2.589,3.564c0,2.231,0.777,3.527,3.181,3.527
		c1.221,0,1.036-0.792,0.962-1.729L193.477,47.459z"/>
	<path d="M167.805,41.808c1.479,0,2.478-0.145,3.181-0.252c0.702-0.145,1.109-0.252,1.368-0.252c2.108,0,4.771,3.996,4.771,7.055
		c0,1.297-0.851,2.592-2.293,2.592c-2.996,0-3.81-4.247-5.475-4.247c-0.518,0-1.294-0.036-1.146,3.743l0.296,7.955
		c0.037,0.9,0.185,3.061,0.555,3.816c0.74,1.367,3.033,0.611,3.033,2.52c0,2.771-6.916,2.699-8.803,2.699
		c-6.917,0-7.619-1.584-7.619-2.699c0-2.52,3.402-0.469,3.402-4.752V48.935c0-0.287,0.148-2.231-1.295-2.231
		c-1.886,0-1.85,4.247-5.066,4.247c-1.887,0-2.849-1.188-2.849-2.987c0-3.888,2.996-6.659,4.438-6.659
		c0.703,0,0.999,0.107,1.517,0.252c0.555,0.107,1.294,0.252,2.885,0.252H167.805z"/>
	<path d="M133.403,67.04c-1.257,0-2.071,0.108-2.774,0.252c-0.666,0.108-1.184,0.252-1.85,0.252c-1.701,0-3.772-3.6-3.772-6.406
		c0-1.368,0.629-3.096,2.293-3.096c2.367,0,0.222,5.003,6.51,5.003c2.626,0,3.07-1.26,3.07-3.852V47.747
		c0-3.384-2.922-1.8-2.922-3.888c0-1.224,0.37-2.448,7.767-2.448c1.812,0,7.62,0.145,7.62,2.772c0,2.052-3.255,0.468-3.329,3.491
		c-0.074,2.016-0.259,4.031-0.259,6.191c0,2.123,0,4.428,0.074,7.055c0.111,4.176,2.997,2.305,2.997,4.535
		c0,1.656-1.887,1.584-3.07,1.584H133.403z"/>
	<path d="M120.048,58.978c0.555,1.152,1.332,2.879,2.146,3.852c1.073,1.296,3.07,0.792,3.07,2.484c0,1.15-0.481,2.123-5.77,2.123
		c-1.479,0-5.474-0.036-5.474-2.195c0-1.872,2.367-0.937,2.367-2.34c0-1.764-1.146-1.836-3.07-1.836c-5.955,0-6.88,0.145-6.88,1.764
		c0,1.26,2.256,0.611,2.256,2.34c0,2.231-3.181,2.268-8.47,2.268c-1.849,0-7.102,0.107-7.102-2.52c0-2.052,1.998-0.396,3.218-3.132
		c1.331-2.952,6.917-13.966,7.545-15.011c1.443-2.375,3.477-5.578,6.695-5.578c3.292,0,4.476,1.871,4.476,4.355
		c0,2.844,1.517,6.011,2.663,8.494L120.048,58.978z M112.725,56.638c0.407,0,1.332,0.107,1.332-0.504
		c0-0.432-0.629-1.836-0.777-2.231s-0.777-2.556-1.665-2.556c-0.813,0-1.442,1.332-1.775,1.908
		c-0.296,0.504-1.368,2.375-1.368,2.915s1.109,0.468,1.479,0.468H112.725z"/>
	<path d="M81.579,42.995c1.665-1.439,2.071-1.584,4.364-1.584c1.665,0,6.658-0.144,6.658,2.412c0,2.16-2.663,0.756-3.255,4.355
		c-0.407,2.592-0.407,5.22-0.407,7.811c0,1.621,0.074,3.889,0.333,5.436c0.37,2.305,2.515,1.549,2.515,3.456
		c0,2.34-3.81,2.556-5.511,2.556c-1.738,0-5.548-0.216-5.548-2.628c0-1.764,1.96-0.899,2.515-3.204
		c0.222-0.936,0.259-2.268,0.259-3.275c0-0.756-0.037-3.096-1.184-3.096c-0.777,0-1.738,0.865-2.256,1.332l-11.429,9.971
		c-0.555,0.469-1.184,0.9-1.924,0.9c-2.478,0-2.256-4.932-2.256-6.551v-9.323c0-1.368,0-3.6-0.481-4.896
		c-0.629-1.656-2.589-0.9-2.589-2.951c0-2.484,4.032-2.305,5.659-2.305c1.554,0,5.326-0.107,5.326,2.196
		c0,1.944-1.96,1.403-2.478,2.915c-0.296,0.828-0.333,2.377-0.333,3.276c0,0.612,0.037,2.087,0.962,2.087
		c0.666,0,1.849-1.043,2.293-1.403L81.579,42.995z"/>
	<path d="M57.275,60.201c0.111,5.255,3.033,2.376,3.033,4.968c0,1.439-1.591,2.052-2.848,2.052c-1.073,0-2.108-0.036-3.144-0.108
		c-1.036-0.035-2.108-0.072-3.144-0.072s-2.034,0.037-3.181,0.072c-1.147,0.072-2.478,0.108-4.069,0.108
		c-9.357,0-13.389-6.3-13.389-12.995c0-6.479,3.366-12.67,13.648-12.67H56.24c1.294,0,3.44,0.252,3.44,1.908
		c0,2.34-2.774,0.539-2.7,4.247L57.275,60.201z M48.103,47.459c0-1.368-0.111-1.979-1.665-1.979c-2.848,0-6.103,1.332-6.103,9.754
		c0,3.6,0.814,8.244,5.475,8.244c1.997,0,2.293-0.756,2.293-2.592V47.459z"/>
</g>
</svg>
