<?xml version="1.0" encoding="utf-8"?>
<!-- Generator: Adobe Illustrator 16.0.0, SVG Export Plug-In . SVG Version: 6.00 Build 0)  -->
<!DOCTYPE svg PUBLIC "-//W3C//DTD SVG 1.1//EN" "http://www.w3.org/Graphics/SVG/1.1/DTD/svg11.dtd">
<svg version="1.1" id="editable_text" xmlns="http://www.w3.org/2000/svg" xmlns:xlink="http://www.w3.org/1999/xlink" x="0px"
	 y="0px" width="294.035px" height="70.242px" viewBox="0 0 294.035 70.242" enable-background="new 0 0 294.035 70.242"
	 xml:space="preserve">
<g>
	<path fill="#FFFFFF" d="M36.483,15.879c0.037-1.477,0.073-3.78-0.11-5.184c-0.441-3.096-2.829-1.764-2.829-3.744
		c0-1.367,1.616-1.943,2.792-1.943c0.956,0,7.569,0.36,10.619,0.36c0.735,0,8.12-0.36,8.635-0.36c1.433,0,2.939,2.951,2.939,5.399
		c0,1.224-0.588,2.483-1.984,2.483c-2.535,0-1.212-3.707-8.267-3.707c-2.242,0-3.197-0.181-3.197,5.039
		c0,0.647,0.037,1.26,2.168,1.26c2.829,0,1.029-3.312,3.601-3.312c2.095,0,2.241,3.924,2.241,5.327c0,1.692-0.184,6.048-2.682,6.048
		c-2.352,0,0.074-4.068-3.858-4.068c-1.617,0-1.396,0.288-1.433,3.996c-0.147,5.327,3.564,2.376,3.564,5.111
		c0,0.828,0.331,2.411-8.598,2.411c-5.879,0-6.834-0.827-6.834-2.375c0-2.016,1.984-1.08,2.755-2.988
		c0.368-1.008,0.478-3.563,0.478-4.751V15.879z"/>
	<path fill="#FFFFFF" d="M61.577,12.854c0-5.579-2.793-3.275-2.793-5.507c0-1.979,2.866-2.231,4.336-2.231
		c0.771,0,1.506,0.071,2.278,0.107c0.734,0.072,1.506,0.145,2.241,0.145c1.176,0,2.352-0.072,3.564-0.145
		c1.176-0.036,2.388-0.107,3.564-0.107c4.152,0,8.965,1.8,8.965,6.587c0,2.159-1.065,4.247-3.123,5.219
		c-0.331,0.181-0.588,0.288-0.588,0.721c0,0.54,0.478,0.684,0.918,0.863c2.572,0.937,3.711,2.592,4.226,6.479
		c0.441,3.348,2.829,1.332,2.829,3.527c0,1.368-1.69,2.808-5.842,2.808c-5.879,0-6.614-3.312-7.753-8.062
		c-0.404-1.656-1.029-3.276-3.05-3.276c-0.809,0-1.103,0.108-1.103,2.376c0,1.044,0.074,2.483,0.257,3.492
		c0.294,1.655,2.168,1.151,2.168,2.879c0,1.296-0.918,2.268-6.871,2.268c-1.764,0-6.981,0-6.981-2.627
		c0-1.872,2.756-0.576,2.756-5.256v-10.26H61.577z M70.102,14.438c-0.074,0.936-0.257,1.728,0.955,1.728
		c2.388,0,3.16-1.296,3.16-3.527c0-1.764-0.441-3.563-2.572-3.563c-1.359,0-1.323,0.828-1.396,1.943L70.102,14.438z"/>
	<path fill="#FFFFFF" d="M103.94,5.368c4.923,0,5.622-0.721,6.209-0.721c2.094,0,2.976,3.528,2.976,5.111
		c0,1.188-0.478,2.592-1.911,2.592c-2.902,0-0.551-3.455-7.532-3.455c-4.079,0-3.674,0.72-3.674,4.859
		c0,2.088,0.11,2.159,2.352,2.159c2.792,0,0.698-3.995,3.307-3.995c2.131,0,2.278,4.067,2.278,5.472
		c0,1.476-0.257,5.795-2.462,5.795c-2.278,0,0-3.779-3.711-3.779c-1.543,0-1.506,1.367-1.506,2.52c0,5.255,0.367,5.003,4.226,5.003
		c7.532,0,5.401-5.075,8.414-5.075c1.176,0,1.764,1.296,1.764,2.304c0,2.448-1.984,6.839-3.454,6.839
		c-0.257,0-0.845-0.107-1.617-0.216c-0.808-0.071-1.837-0.18-3.086-0.18H91.41c-2.425,0-2.461-1.08-2.461-1.548
		c0-1.979,2.499-0.396,2.755-4.212c0.441-6.551,0.478-5.902,0.11-12.418c-0.257-5.507-3.05-2.664-3.05-5.22
		c0-2.195,3.087-1.835,4.593-1.835H103.94z"/>
	<path fill="#FFFFFF" d="M130.614,5.368c4.923,0,5.622-0.721,6.209-0.721c2.094,0,2.976,3.528,2.976,5.111
		c0,1.188-0.478,2.592-1.911,2.592c-2.902,0-0.551-3.455-7.532-3.455c-4.079,0-3.674,0.72-3.674,4.859
		c0,2.088,0.11,2.159,2.352,2.159c2.792,0,0.698-3.995,3.307-3.995c2.131,0,2.278,4.067,2.278,5.472
		c0,1.476-0.257,5.795-2.462,5.795c-2.278,0,0-3.779-3.711-3.779c-1.543,0-1.506,1.367-1.506,2.52c0,5.255,0.367,5.003,4.226,5.003
		c7.532,0,5.401-5.075,8.414-5.075c1.176,0,1.764,1.296,1.764,2.304c0,2.448-1.984,6.839-3.454,6.839
		c-0.257,0-0.845-0.107-1.617-0.216c-0.808-0.071-1.837-0.18-3.086-0.18h-15.102c-2.425,0-2.461-1.08-2.461-1.548
		c0-1.979,2.499-0.396,2.755-4.212c0.441-6.551,0.478-5.902,0.11-12.418c-0.257-5.507-3.05-2.664-3.05-5.22
		c0-2.195,3.087-1.835,4.593-1.835H130.614z"/>
	<path fill="#FFFFFF" d="M145.346,15.879c0.037-1.477,0.074-3.78-0.11-5.184c-0.441-3.096-2.83-1.764-2.83-3.744
		c0-1.367,1.617-1.943,2.793-1.943c0.955,0,7.568,0.36,10.617,0.36c0.735,0,8.121-0.36,8.636-0.36c1.434,0,2.938,2.951,2.938,5.399
		c0,1.224-0.588,2.483-1.983,2.483c-2.535,0-1.212-3.707-8.267-3.707c-2.242,0-3.197-0.181-3.197,5.039
		c0,0.647,0.037,1.26,2.168,1.26c2.828,0,1.029-3.312,3.601-3.312c2.095,0,2.242,3.924,2.242,5.327c0,1.692-0.185,6.048-2.683,6.048
		c-2.353,0,0.072-4.068-3.858-4.068c-1.616,0-1.396,0.288-1.433,3.996c-0.147,5.327,3.563,2.376,3.563,5.111
		c0,0.828,0.331,2.411-8.599,2.411c-5.878,0-6.834-0.827-6.834-2.375c0-2.016,1.984-1.08,2.756-2.988
		c0.368-1.008,0.478-3.563,0.478-4.751L145.346,15.879L145.346,15.879z"/>
	<path fill="#FFFFFF" d="M168.016,17.895c0-7.632,6.209-13.03,14.219-13.03c10.142,0,14.037,8.746,14.037,13.39
		c0,7.739-6.981,12.851-14.479,12.851C174.041,31.104,168.016,25.562,168.016,17.895z M180.544,10.228
		c-2.058,0-3.086,2.087-3.086,3.852c0,3.06,2.204,11.662,6.173,11.662c2.241,0,3.196-1.908,3.196-3.852
		C186.827,18.614,184.843,10.228,180.544,10.228z"/>
	<path fill="#FFFFFF" d="M200.493,12.854c0-5.579-2.792-3.275-2.792-5.507c0-1.979,2.865-2.231,4.336-2.231
		c0.771,0,1.506,0.071,2.277,0.107c0.734,0.072,1.506,0.145,2.24,0.145c1.176,0,2.353-0.072,3.564-0.145
		c1.176-0.036,2.389-0.107,3.564-0.107c4.15,0,8.965,1.8,8.965,6.587c0,2.159-1.065,4.247-3.123,5.219
		c-0.332,0.181-0.588,0.288-0.588,0.721c0,0.54,0.478,0.684,0.918,0.863c2.571,0.937,3.711,2.592,4.226,6.479
		c0.44,3.348,2.83,1.332,2.83,3.527c0,1.368-1.69,2.808-5.843,2.808c-5.879,0-6.613-3.312-7.754-8.062
		c-0.403-1.656-1.027-3.276-3.049-3.276c-0.809,0-1.103,0.108-1.103,2.376c0,1.044,0.073,2.483,0.257,3.492
		c0.294,1.655,2.168,1.151,2.168,2.879c0,1.296-0.919,2.268-6.871,2.268c-1.764,0-6.98,0-6.98-2.627
		c0-1.872,2.756-0.576,2.756-5.256L200.493,12.854L200.493,12.854z M209.018,14.438c-0.072,0.936-0.256,1.728,0.955,1.728
		c2.389,0,3.16-1.296,3.16-3.527c0-1.764-0.439-3.563-2.572-3.563c-1.358,0-1.322,0.828-1.396,1.943L209.018,14.438z"/>
	<path fill="#FFFFFF" d="M237.382,20.486c-0.221-0.469-0.625-1.548-1.286-1.548c-1.139,0-0.771,4.751-0.771,5.938
		c0,3.852,2.353,2.052,2.353,3.996c0,2.052-3.933,2.123-5.365,2.123c-1.285,0-4.629-0.107-4.629-1.979
		c0-2.052,2.203-0.359,2.498-3.312c0.293-3.023,0.625-6.371,0.625-11.591c0-2.159-0.147-3.275-0.552-4.104
		c-0.368-0.756-2.462-1.008-2.462-2.483c0-2.052,3.417-2.556,6.355-2.556c4.3,0,4.227,0.72,5.328,2.556
		c1.285,2.124,3.563,8.027,5.181,8.387c1.14,0.252,2.646-4.104,3.969-6.479c1.874-3.384,1.91-4.464,6.761-4.464
		c1.616,0,5.291,0.108,5.291,2.376c0,1.439-1.652,1.728-2.021,2.951c-0.294,1.008-0.552,5.256-0.552,6.875
		c0,0.54,0.221,4.5,0.367,7.848c0.109,2.628,2.314,2.052,2.314,3.671c0,2.412-5.034,2.304-6.65,2.304
		c-1.507,0-6.541,0.145-6.541-2.159c0-1.26,1.654-1.476,1.911-2.628c0.147-0.611,0.882-6.803-0.403-6.803
		c-1.14,0-2.314,3.167-3.196,5.003c-0.81,1.656-2.132,5.76-3.308,5.615c-0.588-0.071-0.883,0-3.086-4.859L237.382,20.486z"/>
</g>
<g>
	<path fill="#FFFFFF" d="M258.432,61.353c0,2.952,2.7,1.729,2.7,3.708c0,2.34-5.474,2.376-7.026,2.376
		c-1.664,0-6.99-0.107-6.99-2.447c0-2.088,2.699-0.217,2.811-4.716v-2.088c0-0.396-0.146-0.575-0.592-0.575
		c-0.999,0-2.107,0.18-3.218,0.18c-5.142,0-9.802-2.879-9.802-8.242c0-5.399,4.846-8.243,9.875-8.243
		c1.554,0,4.81,0.504,10.172,0.504c0.925,0,1.812-0.072,2.736-0.072c1.146,0,2.774,0.324,2.774,1.765c0,2.268-3.44,1.08-3.44,3.779
		V61.353z M244.857,49.69c0,2.194,0.961,3.996,3.402,3.996c1.997,0,1.664-0.828,1.664-1.584v-5.399c0-0.72,0.037-1.15-1.404-1.15
		C246.041,45.552,244.857,47.423,244.857,49.69z"/>
	<path fill="#FFFFFF" d="M221.035,67.544c-7.547,0-14.573-5.111-14.573-12.851c0-4.644,3.921-13.392,14.129-13.392
		c8.063,0,14.313,5.4,14.313,13.031C234.904,62.001,228.84,67.544,221.035,67.544z M215.968,58.33c0,1.943,0.962,3.852,3.218,3.852
		c3.996,0,6.215-8.604,6.215-11.662c0-1.764-1.035-3.852-3.106-3.852C217.965,46.667,215.968,55.054,215.968,58.33z"/>
	<path fill="#FFFFFF" d="M202.205,59.554c0,4.68,2.773,3.383,2.773,5.255c0,2.628-5.252,2.628-7.026,2.628
		c-5.992,0-6.917-0.973-6.917-2.268c0-1.729,1.887-1.226,2.183-2.881c0.185-1.008,0.259-2.447,0.259-3.49
		c0-2.269-0.295-2.377-1.108-2.377c-2.035,0-2.664,1.621-3.07,3.275c-1.146,4.752-1.887,8.062-7.805,8.062
		c-4.181,0-5.882-1.438-5.882-2.809c0-2.195,2.404-0.18,2.849-3.527c0.519-3.887,1.665-5.543,4.254-6.479
		c0.444-0.18,0.925-0.324,0.925-0.863c0-0.433-0.259-0.541-0.592-0.721c-2.07-0.973-3.145-3.061-3.145-5.219
		c0-4.788,4.846-6.588,9.025-6.588c1.184,0,2.403,0.072,3.588,0.107c1.221,0.071,2.403,0.145,3.588,0.145
		c0.738,0,1.517-0.072,2.256-0.145c0.777-0.035,1.517-0.107,2.293-0.107c1.479,0,4.365,0.252,4.365,2.232
		c0,2.229-2.812-0.072-2.812,5.506V59.554L202.205,59.554z M193.477,47.458c-0.074-1.115-0.037-1.943-1.406-1.943
		c-2.145,0-2.588,1.801-2.588,3.564c0,2.23,0.776,3.526,3.181,3.526c1.221,0,1.036-0.792,0.962-1.729L193.477,47.458z"/>
	<path fill="#FFFFFF" d="M167.805,41.808c1.479,0,2.479-0.145,3.182-0.252c0.701-0.145,1.109-0.252,1.367-0.252
		c2.108,0,4.771,3.996,4.771,7.055c0,1.297-0.852,2.592-2.293,2.592c-2.996,0-3.811-4.246-5.475-4.246
		c-0.519,0-1.295-0.037-1.146,3.742l0.296,7.955c0.037,0.9,0.185,3.061,0.556,3.816c0.739,1.367,3.033,0.611,3.033,2.52
		c0,2.771-6.916,2.699-8.804,2.699c-6.917,0-7.619-1.584-7.619-2.699c0-2.52,3.402-0.469,3.402-4.752V48.935
		c0-0.287,0.147-2.23-1.296-2.23c-1.885,0-1.85,4.246-5.065,4.246c-1.887,0-2.849-1.188-2.849-2.986
		c0-3.889,2.996-6.659,4.438-6.659c0.703,0,0.999,0.106,1.518,0.252c0.555,0.106,1.293,0.252,2.885,0.252L167.805,41.808
		L167.805,41.808z"/>
	<path fill="#FFFFFF" d="M133.403,67.041c-1.257,0-2.071,0.107-2.774,0.252c-0.666,0.107-1.184,0.252-1.85,0.252
		c-1.701,0-3.772-3.601-3.772-6.406c0-1.368,0.629-3.096,2.293-3.096c2.367,0,0.222,5.002,6.51,5.002c2.626,0,3.07-1.26,3.07-3.852
		V47.748c0-3.385-2.922-1.801-2.922-3.889c0-1.225,0.37-2.447,7.767-2.447c1.812,0,7.621,0.145,7.621,2.771
		c0,2.052-3.256,0.468-3.33,3.49c-0.074,2.017-0.259,4.031-0.259,6.191c0,2.123,0,4.428,0.074,7.055
		c0.111,4.177,2.997,2.306,2.997,4.535c0,1.656-1.887,1.584-3.07,1.584h-12.355V67.041z"/>
	<path fill="#FFFFFF" d="M120.048,58.978c0.555,1.152,1.332,2.879,2.146,3.852c1.073,1.297,3.07,0.793,3.07,2.484
		c0,1.15-0.481,2.123-5.77,2.123c-1.479,0-5.474-0.036-5.474-2.195c0-1.871,2.367-0.937,2.367-2.34c0-1.764-1.146-1.836-3.07-1.836
		c-5.955,0-6.88,0.145-6.88,1.764c0,1.26,2.256,0.611,2.256,2.34c0,2.231-3.181,2.269-8.47,2.269c-1.849,0-7.102,0.106-7.102-2.521
		c0-2.051,1.998-0.396,3.218-3.131c1.331-2.953,6.917-13.967,7.545-15.012c1.443-2.375,3.477-5.578,6.695-5.578
		c3.292,0,4.476,1.871,4.476,4.355c0,2.844,1.517,6.011,2.663,8.494L120.048,58.978z M112.725,56.638
		c0.407,0,1.332,0.107,1.332-0.504c0-0.432-0.629-1.836-0.777-2.231c-0.148-0.396-0.777-2.556-1.665-2.556
		c-0.813,0-1.442,1.332-1.775,1.908c-0.296,0.504-1.368,2.375-1.368,2.914c0,0.541,1.109,0.469,1.479,0.469H112.725z"/>
	<path fill="#FFFFFF" d="M81.579,42.996c1.665-1.439,2.071-1.584,4.364-1.584c1.665,0,6.658-0.145,6.658,2.412
		c0,2.159-2.663,0.756-3.255,4.354c-0.407,2.593-0.407,5.221-0.407,7.812c0,1.62,0.074,3.889,0.333,5.436
		c0.37,2.305,2.515,1.549,2.515,3.455c0,2.341-3.81,2.557-5.511,2.557c-1.738,0-5.548-0.216-5.548-2.628
		c0-1.765,1.96-0.899,2.515-3.204c0.222-0.936,0.259-2.268,0.259-3.275c0-0.756-0.037-3.096-1.184-3.096
		c-0.777,0-1.738,0.865-2.256,1.332l-11.429,9.971c-0.555,0.469-1.184,0.9-1.924,0.9c-2.478,0-2.256-4.932-2.256-6.551v-9.323
		c0-1.368,0-3.601-0.481-4.896c-0.629-1.656-2.589-0.9-2.589-2.951c0-2.484,4.032-2.305,5.659-2.305
		c1.554,0,5.326-0.107,5.326,2.195c0,1.943-1.96,1.402-2.478,2.915c-0.296,0.828-0.333,2.377-0.333,3.276
		c0,0.611,0.037,2.086,0.962,2.086c0.666,0,1.849-1.043,2.293-1.402L81.579,42.996z"/>
	<path fill="#FFFFFF" d="M57.275,60.201c0.111,5.256,3.033,2.377,3.033,4.969c0,1.438-1.591,2.052-2.848,2.052
		c-1.073,0-2.108-0.036-3.144-0.108c-1.036-0.035-2.108-0.072-3.144-0.072c-1.036,0-2.034,0.037-3.181,0.072
		c-1.147,0.072-2.478,0.108-4.069,0.108c-9.357,0-13.389-6.3-13.389-12.995c0-6.479,3.366-12.67,13.648-12.67H56.24
		c1.294,0,3.44,0.252,3.44,1.908c0,2.34-2.774,0.539-2.7,4.246L57.275,60.201z M48.103,47.458c0-1.367-0.111-1.979-1.665-1.979
		c-2.848,0-6.103,1.332-6.103,9.754c0,3.6,0.814,8.244,5.475,8.244c1.997,0,2.293-0.756,2.293-2.592V47.458z"/>
</g>
</svg>
